G04 #@! TF.FileFunction,Legend,Bot*
%FSLAX46Y46*%
G04 Gerber Fmt 4.6, Leading zero omitted, Abs format (unit mm)*
G04 Created by KiCad (PCBNEW 4.0.5+dfsg1-4) date Wed Jul 11 10:22:54 2018*
%MOMM*%
%LPD*%
G01*
G04 APERTURE LIST*
%ADD10C,0.100000*%
%ADD11C,0.300000*%
G04 APERTURE END LIST*
D10*
D11*
X144454000Y-110914571D02*
X144454000Y-109414571D01*
X143882572Y-109414571D01*
X143739714Y-109486000D01*
X143668286Y-109557429D01*
X143596857Y-109700286D01*
X143596857Y-109914571D01*
X143668286Y-110057429D01*
X143739714Y-110128857D01*
X143882572Y-110200286D01*
X144454000Y-110200286D01*
X142739714Y-110914571D02*
X142882572Y-110843143D01*
X142954000Y-110771714D01*
X143025429Y-110628857D01*
X143025429Y-110200286D01*
X142954000Y-110057429D01*
X142882572Y-109986000D01*
X142739714Y-109914571D01*
X142525429Y-109914571D01*
X142382572Y-109986000D01*
X142311143Y-110057429D01*
X142239714Y-110200286D01*
X142239714Y-110628857D01*
X142311143Y-110771714D01*
X142382572Y-110843143D01*
X142525429Y-110914571D01*
X142739714Y-110914571D01*
X140954000Y-110843143D02*
X141096857Y-110914571D01*
X141382571Y-110914571D01*
X141525429Y-110843143D01*
X141596857Y-110771714D01*
X141668286Y-110628857D01*
X141668286Y-110200286D01*
X141596857Y-110057429D01*
X141525429Y-109986000D01*
X141382571Y-109914571D01*
X141096857Y-109914571D01*
X140954000Y-109986000D01*
X140311143Y-110914571D02*
X140311143Y-109414571D01*
X140168286Y-110343143D02*
X139739715Y-110914571D01*
X139739715Y-109914571D02*
X140311143Y-110486000D01*
X138525429Y-110843143D02*
X138668286Y-110914571D01*
X138954000Y-110914571D01*
X139096857Y-110843143D01*
X139168286Y-110700286D01*
X139168286Y-110128857D01*
X139096857Y-109986000D01*
X138954000Y-109914571D01*
X138668286Y-109914571D01*
X138525429Y-109986000D01*
X138454000Y-110128857D01*
X138454000Y-110271714D01*
X139168286Y-110414571D01*
X138025429Y-109914571D02*
X137454000Y-109914571D01*
X137811143Y-109414571D02*
X137811143Y-110700286D01*
X137739715Y-110843143D01*
X137596857Y-110914571D01*
X137454000Y-110914571D01*
X136954000Y-110914571D02*
X136954000Y-109414571D01*
X136382572Y-109414571D01*
X136239714Y-109486000D01*
X136168286Y-109557429D01*
X136096857Y-109700286D01*
X136096857Y-109914571D01*
X136168286Y-110057429D01*
X136239714Y-110128857D01*
X136382572Y-110200286D01*
X136954000Y-110200286D01*
X135454000Y-110914571D02*
X135454000Y-109914571D01*
X135454000Y-109414571D02*
X135525429Y-109486000D01*
X135454000Y-109557429D01*
X135382572Y-109486000D01*
X135454000Y-109414571D01*
X135454000Y-109557429D01*
X135413428Y-98635429D02*
X135341999Y-98564000D01*
X135199142Y-98492571D01*
X134841999Y-98492571D01*
X134699142Y-98564000D01*
X134627713Y-98635429D01*
X134556285Y-98778286D01*
X134556285Y-98921143D01*
X134627713Y-99135429D01*
X135484856Y-99992571D01*
X134556285Y-99992571D01*
X133627714Y-98492571D02*
X133484857Y-98492571D01*
X133342000Y-98564000D01*
X133270571Y-98635429D01*
X133199142Y-98778286D01*
X133127714Y-99064000D01*
X133127714Y-99421143D01*
X133199142Y-99706857D01*
X133270571Y-99849714D01*
X133342000Y-99921143D01*
X133484857Y-99992571D01*
X133627714Y-99992571D01*
X133770571Y-99921143D01*
X133842000Y-99849714D01*
X133913428Y-99706857D01*
X133984857Y-99421143D01*
X133984857Y-99064000D01*
X133913428Y-98778286D01*
X133842000Y-98635429D01*
X133770571Y-98564000D01*
X133627714Y-98492571D01*
X131699143Y-99992571D02*
X132556286Y-99992571D01*
X132127714Y-99992571D02*
X132127714Y-98492571D01*
X132270571Y-98706857D01*
X132413429Y-98849714D01*
X132556286Y-98921143D01*
X130842000Y-99135429D02*
X130984858Y-99064000D01*
X131056286Y-98992571D01*
X131127715Y-98849714D01*
X131127715Y-98778286D01*
X131056286Y-98635429D01*
X130984858Y-98564000D01*
X130842000Y-98492571D01*
X130556286Y-98492571D01*
X130413429Y-98564000D01*
X130342000Y-98635429D01*
X130270572Y-98778286D01*
X130270572Y-98849714D01*
X130342000Y-98992571D01*
X130413429Y-99064000D01*
X130556286Y-99135429D01*
X130842000Y-99135429D01*
X130984858Y-99206857D01*
X131056286Y-99278286D01*
X131127715Y-99421143D01*
X131127715Y-99706857D01*
X131056286Y-99849714D01*
X130984858Y-99921143D01*
X130842000Y-99992571D01*
X130556286Y-99992571D01*
X130413429Y-99921143D01*
X130342000Y-99849714D01*
X130270572Y-99706857D01*
X130270572Y-99421143D01*
X130342000Y-99278286D01*
X130413429Y-99206857D01*
X130556286Y-99135429D01*
X139234856Y-96920857D02*
X139734856Y-96920857D01*
X139734856Y-97706571D02*
X139734856Y-96206571D01*
X139020570Y-96206571D01*
X137806285Y-97706571D02*
X137806285Y-96920857D01*
X137877714Y-96778000D01*
X138020571Y-96706571D01*
X138306285Y-96706571D01*
X138449142Y-96778000D01*
X137806285Y-97635143D02*
X137949142Y-97706571D01*
X138306285Y-97706571D01*
X138449142Y-97635143D01*
X138520571Y-97492286D01*
X138520571Y-97349429D01*
X138449142Y-97206571D01*
X138306285Y-97135143D01*
X137949142Y-97135143D01*
X137806285Y-97063714D01*
X136449142Y-97635143D02*
X136591999Y-97706571D01*
X136877713Y-97706571D01*
X137020571Y-97635143D01*
X137091999Y-97563714D01*
X137163428Y-97420857D01*
X137163428Y-96992286D01*
X137091999Y-96849429D01*
X137020571Y-96778000D01*
X136877713Y-96706571D01*
X136591999Y-96706571D01*
X136449142Y-96778000D01*
X135234857Y-97635143D02*
X135377714Y-97706571D01*
X135663428Y-97706571D01*
X135806285Y-97635143D01*
X135877714Y-97492286D01*
X135877714Y-96920857D01*
X135806285Y-96778000D01*
X135663428Y-96706571D01*
X135377714Y-96706571D01*
X135234857Y-96778000D01*
X135163428Y-96920857D01*
X135163428Y-97063714D01*
X135877714Y-97206571D01*
X134306285Y-97706571D02*
X134449143Y-97635143D01*
X134520571Y-97492286D01*
X134520571Y-96206571D01*
X133163429Y-97635143D02*
X133306286Y-97706571D01*
X133592000Y-97706571D01*
X133734857Y-97635143D01*
X133806286Y-97492286D01*
X133806286Y-96920857D01*
X133734857Y-96778000D01*
X133592000Y-96706571D01*
X133306286Y-96706571D01*
X133163429Y-96778000D01*
X133092000Y-96920857D01*
X133092000Y-97063714D01*
X133806286Y-97206571D01*
X132520572Y-97635143D02*
X132377715Y-97706571D01*
X132092000Y-97706571D01*
X131949143Y-97635143D01*
X131877715Y-97492286D01*
X131877715Y-97420857D01*
X131949143Y-97278000D01*
X132092000Y-97206571D01*
X132306286Y-97206571D01*
X132449143Y-97135143D01*
X132520572Y-96992286D01*
X132520572Y-96920857D01*
X132449143Y-96778000D01*
X132306286Y-96706571D01*
X132092000Y-96706571D01*
X131949143Y-96778000D01*
X131306286Y-97635143D02*
X131163429Y-97706571D01*
X130877714Y-97706571D01*
X130734857Y-97635143D01*
X130663429Y-97492286D01*
X130663429Y-97420857D01*
X130734857Y-97278000D01*
X130877714Y-97206571D01*
X131092000Y-97206571D01*
X131234857Y-97135143D01*
X131306286Y-96992286D01*
X131306286Y-96920857D01*
X131234857Y-96778000D01*
X131092000Y-96706571D01*
X130877714Y-96706571D01*
X130734857Y-96778000D01*
X130234857Y-96706571D02*
X129663428Y-96706571D01*
X130020571Y-96206571D02*
X130020571Y-97492286D01*
X129949143Y-97635143D01*
X129806285Y-97706571D01*
X129663428Y-97706571D01*
X128592000Y-97635143D02*
X128734857Y-97706571D01*
X129020571Y-97706571D01*
X129163428Y-97635143D01*
X129234857Y-97492286D01*
X129234857Y-96920857D01*
X129163428Y-96778000D01*
X129020571Y-96706571D01*
X128734857Y-96706571D01*
X128592000Y-96778000D01*
X128520571Y-96920857D01*
X128520571Y-97063714D01*
X129234857Y-97206571D01*
X127234857Y-97635143D02*
X127377714Y-97706571D01*
X127663428Y-97706571D01*
X127806286Y-97635143D01*
X127877714Y-97563714D01*
X127949143Y-97420857D01*
X127949143Y-96992286D01*
X127877714Y-96849429D01*
X127806286Y-96778000D01*
X127663428Y-96706571D01*
X127377714Y-96706571D01*
X127234857Y-96778000D01*
X126592000Y-97706571D02*
X126592000Y-96206571D01*
X125949143Y-97706571D02*
X125949143Y-96920857D01*
X126020572Y-96778000D01*
X126163429Y-96706571D01*
X126377714Y-96706571D01*
X126520572Y-96778000D01*
X126592000Y-96849429D01*
M02*
