M48
METRIC,TZ
T1C0.800
T2C2.200
T3C2.850
%
G90
G05
T1
X129540Y-93091
X129540Y-95504
X129540Y-97536
X129540Y-99949
X161100Y-109792
X163131Y-109792
X174943Y-105347
X175260Y-107950
X177800Y-93091
X177800Y-95504
X177800Y-97536
X177800Y-99949
T2
X127000Y-89789
X127000Y-103251
X180340Y-89789
X180340Y-103251
T3
X124700Y-85100
X124700Y-108100
X182700Y-85100
X182700Y-108100
T0
M30
