G04 #@! TF.FileFunction,Legend,Top*
%FSLAX46Y46*%
G04 Gerber Fmt 4.6, Leading zero omitted, Abs format (unit mm)*
G04 Created by KiCad (PCBNEW 4.0.5+dfsg1-4) date Sat Aug 11 18:46:33 2018*
%MOMM*%
%LPD*%
G01*
G04 APERTURE LIST*
%ADD10C,0.100000*%
%ADD11C,0.300000*%
%ADD12C,0.150000*%
G04 APERTURE END LIST*
D10*
D11*
X165703572Y-93936429D02*
X165775001Y-93865000D01*
X165917858Y-93793571D01*
X166275001Y-93793571D01*
X166417858Y-93865000D01*
X166489287Y-93936429D01*
X166560715Y-94079286D01*
X166560715Y-94222143D01*
X166489287Y-94436429D01*
X165632144Y-95293571D01*
X166560715Y-95293571D01*
X167489286Y-93793571D02*
X167632143Y-93793571D01*
X167775000Y-93865000D01*
X167846429Y-93936429D01*
X167917858Y-94079286D01*
X167989286Y-94365000D01*
X167989286Y-94722143D01*
X167917858Y-95007857D01*
X167846429Y-95150714D01*
X167775000Y-95222143D01*
X167632143Y-95293571D01*
X167489286Y-95293571D01*
X167346429Y-95222143D01*
X167275000Y-95150714D01*
X167203572Y-95007857D01*
X167132143Y-94722143D01*
X167132143Y-94365000D01*
X167203572Y-94079286D01*
X167275000Y-93936429D01*
X167346429Y-93865000D01*
X167489286Y-93793571D01*
X169417857Y-95293571D02*
X168560714Y-95293571D01*
X168989286Y-95293571D02*
X168989286Y-93793571D01*
X168846429Y-94007857D01*
X168703571Y-94150714D01*
X168560714Y-94222143D01*
X170275000Y-94436429D02*
X170132142Y-94365000D01*
X170060714Y-94293571D01*
X169989285Y-94150714D01*
X169989285Y-94079286D01*
X170060714Y-93936429D01*
X170132142Y-93865000D01*
X170275000Y-93793571D01*
X170560714Y-93793571D01*
X170703571Y-93865000D01*
X170775000Y-93936429D01*
X170846428Y-94079286D01*
X170846428Y-94150714D01*
X170775000Y-94293571D01*
X170703571Y-94365000D01*
X170560714Y-94436429D01*
X170275000Y-94436429D01*
X170132142Y-94507857D01*
X170060714Y-94579286D01*
X169989285Y-94722143D01*
X169989285Y-95007857D01*
X170060714Y-95150714D01*
X170132142Y-95222143D01*
X170275000Y-95293571D01*
X170560714Y-95293571D01*
X170703571Y-95222143D01*
X170775000Y-95150714D01*
X170846428Y-95007857D01*
X170846428Y-94722143D01*
X170775000Y-94579286D01*
X170703571Y-94507857D01*
X170560714Y-94436429D01*
X161882144Y-91967857D02*
X161382144Y-91967857D01*
X161382144Y-92753571D02*
X161382144Y-91253571D01*
X162096430Y-91253571D01*
X163310715Y-92753571D02*
X163310715Y-91967857D01*
X163239286Y-91825000D01*
X163096429Y-91753571D01*
X162810715Y-91753571D01*
X162667858Y-91825000D01*
X163310715Y-92682143D02*
X163167858Y-92753571D01*
X162810715Y-92753571D01*
X162667858Y-92682143D01*
X162596429Y-92539286D01*
X162596429Y-92396429D01*
X162667858Y-92253571D01*
X162810715Y-92182143D01*
X163167858Y-92182143D01*
X163310715Y-92110714D01*
X164667858Y-92682143D02*
X164525001Y-92753571D01*
X164239287Y-92753571D01*
X164096429Y-92682143D01*
X164025001Y-92610714D01*
X163953572Y-92467857D01*
X163953572Y-92039286D01*
X164025001Y-91896429D01*
X164096429Y-91825000D01*
X164239287Y-91753571D01*
X164525001Y-91753571D01*
X164667858Y-91825000D01*
X165882143Y-92682143D02*
X165739286Y-92753571D01*
X165453572Y-92753571D01*
X165310715Y-92682143D01*
X165239286Y-92539286D01*
X165239286Y-91967857D01*
X165310715Y-91825000D01*
X165453572Y-91753571D01*
X165739286Y-91753571D01*
X165882143Y-91825000D01*
X165953572Y-91967857D01*
X165953572Y-92110714D01*
X165239286Y-92253571D01*
X166810715Y-92753571D02*
X166667857Y-92682143D01*
X166596429Y-92539286D01*
X166596429Y-91253571D01*
X167953571Y-92682143D02*
X167810714Y-92753571D01*
X167525000Y-92753571D01*
X167382143Y-92682143D01*
X167310714Y-92539286D01*
X167310714Y-91967857D01*
X167382143Y-91825000D01*
X167525000Y-91753571D01*
X167810714Y-91753571D01*
X167953571Y-91825000D01*
X168025000Y-91967857D01*
X168025000Y-92110714D01*
X167310714Y-92253571D01*
X168596428Y-92682143D02*
X168739285Y-92753571D01*
X169025000Y-92753571D01*
X169167857Y-92682143D01*
X169239285Y-92539286D01*
X169239285Y-92467857D01*
X169167857Y-92325000D01*
X169025000Y-92253571D01*
X168810714Y-92253571D01*
X168667857Y-92182143D01*
X168596428Y-92039286D01*
X168596428Y-91967857D01*
X168667857Y-91825000D01*
X168810714Y-91753571D01*
X169025000Y-91753571D01*
X169167857Y-91825000D01*
X169810714Y-92682143D02*
X169953571Y-92753571D01*
X170239286Y-92753571D01*
X170382143Y-92682143D01*
X170453571Y-92539286D01*
X170453571Y-92467857D01*
X170382143Y-92325000D01*
X170239286Y-92253571D01*
X170025000Y-92253571D01*
X169882143Y-92182143D01*
X169810714Y-92039286D01*
X169810714Y-91967857D01*
X169882143Y-91825000D01*
X170025000Y-91753571D01*
X170239286Y-91753571D01*
X170382143Y-91825000D01*
X170882143Y-91753571D02*
X171453572Y-91753571D01*
X171096429Y-91253571D02*
X171096429Y-92539286D01*
X171167857Y-92682143D01*
X171310715Y-92753571D01*
X171453572Y-92753571D01*
X172525000Y-92682143D02*
X172382143Y-92753571D01*
X172096429Y-92753571D01*
X171953572Y-92682143D01*
X171882143Y-92539286D01*
X171882143Y-91967857D01*
X171953572Y-91825000D01*
X172096429Y-91753571D01*
X172382143Y-91753571D01*
X172525000Y-91825000D01*
X172596429Y-91967857D01*
X172596429Y-92110714D01*
X171882143Y-92253571D01*
X173882143Y-92682143D02*
X173739286Y-92753571D01*
X173453572Y-92753571D01*
X173310714Y-92682143D01*
X173239286Y-92610714D01*
X173167857Y-92467857D01*
X173167857Y-92039286D01*
X173239286Y-91896429D01*
X173310714Y-91825000D01*
X173453572Y-91753571D01*
X173739286Y-91753571D01*
X173882143Y-91825000D01*
X174525000Y-92753571D02*
X174525000Y-91253571D01*
X175167857Y-92753571D02*
X175167857Y-91967857D01*
X175096428Y-91825000D01*
X174953571Y-91753571D01*
X174739286Y-91753571D01*
X174596428Y-91825000D01*
X174525000Y-91896429D01*
X160596429Y-88713571D02*
X161596429Y-88713571D01*
X160596429Y-90213571D01*
X161596429Y-90213571D01*
X162739285Y-90142143D02*
X162596428Y-90213571D01*
X162310714Y-90213571D01*
X162167857Y-90142143D01*
X162096428Y-89999286D01*
X162096428Y-89427857D01*
X162167857Y-89285000D01*
X162310714Y-89213571D01*
X162596428Y-89213571D01*
X162739285Y-89285000D01*
X162810714Y-89427857D01*
X162810714Y-89570714D01*
X162096428Y-89713571D01*
X163453571Y-90213571D02*
X163453571Y-89213571D01*
X163453571Y-89499286D02*
X163524999Y-89356429D01*
X163596428Y-89285000D01*
X163739285Y-89213571D01*
X163882142Y-89213571D01*
X164596428Y-90213571D02*
X164453570Y-90142143D01*
X164382142Y-90070714D01*
X164310713Y-89927857D01*
X164310713Y-89499286D01*
X164382142Y-89356429D01*
X164453570Y-89285000D01*
X164596428Y-89213571D01*
X164810713Y-89213571D01*
X164953570Y-89285000D01*
X165024999Y-89356429D01*
X165096428Y-89499286D01*
X165096428Y-89927857D01*
X165024999Y-90070714D01*
X164953570Y-90142143D01*
X164810713Y-90213571D01*
X164596428Y-90213571D01*
X165382142Y-90356429D02*
X166524999Y-90356429D01*
X167167856Y-88713571D02*
X167453570Y-88713571D01*
X167596428Y-88785000D01*
X167739285Y-88927857D01*
X167810713Y-89213571D01*
X167810713Y-89713571D01*
X167739285Y-89999286D01*
X167596428Y-90142143D01*
X167453570Y-90213571D01*
X167167856Y-90213571D01*
X167024999Y-90142143D01*
X166882142Y-89999286D01*
X166810713Y-89713571D01*
X166810713Y-89213571D01*
X166882142Y-88927857D01*
X167024999Y-88785000D01*
X167167856Y-88713571D01*
X168239285Y-88713571D02*
X169096428Y-88713571D01*
X168667857Y-90213571D02*
X168667857Y-88713571D01*
X170382142Y-88785000D02*
X170239285Y-88713571D01*
X170024999Y-88713571D01*
X169810714Y-88785000D01*
X169667856Y-88927857D01*
X169596428Y-89070714D01*
X169524999Y-89356429D01*
X169524999Y-89570714D01*
X169596428Y-89856429D01*
X169667856Y-89999286D01*
X169810714Y-90142143D01*
X170024999Y-90213571D01*
X170167856Y-90213571D01*
X170382142Y-90142143D01*
X170453571Y-90070714D01*
X170453571Y-89570714D01*
X170167856Y-89570714D01*
X170739285Y-90356429D02*
X171882142Y-90356429D01*
X172239285Y-90213571D02*
X172239285Y-88713571D01*
X172239285Y-89427857D02*
X173096428Y-89427857D01*
X173096428Y-90213571D02*
X173096428Y-88713571D01*
X174453571Y-89213571D02*
X174453571Y-90213571D01*
X173810714Y-89213571D02*
X173810714Y-89999286D01*
X173882142Y-90142143D01*
X174025000Y-90213571D01*
X174239285Y-90213571D01*
X174382142Y-90142143D01*
X174453571Y-90070714D01*
X175167857Y-90213571D02*
X175167857Y-88713571D01*
X175167857Y-89285000D02*
X175310714Y-89213571D01*
X175596428Y-89213571D01*
X175739285Y-89285000D01*
X175810714Y-89356429D01*
X175882143Y-89499286D01*
X175882143Y-89927857D01*
X175810714Y-90070714D01*
X175739285Y-90142143D01*
X175596428Y-90213571D01*
X175310714Y-90213571D01*
X175167857Y-90142143D01*
D12*
X192659000Y-104013000D02*
X192659000Y-89027000D01*
X192659000Y-89027000D02*
X181737000Y-89027000D01*
X192659000Y-104013000D02*
X181737000Y-104013000D01*
X177800000Y-89027000D02*
X177800000Y-104013000D01*
X114681000Y-89027000D02*
X114681000Y-104013000D01*
X114681000Y-104013000D02*
X125603000Y-104013000D01*
X114681000Y-89027000D02*
X125603000Y-89027000D01*
X129540000Y-104013000D02*
X129540000Y-89027000D01*
X159004000Y-107061000D02*
X140716000Y-107061000D01*
X140716000Y-107061000D02*
X140716000Y-84709000D01*
X140716000Y-84709000D02*
X159004000Y-84709000D01*
X159004000Y-84709000D02*
X159004000Y-107061000D01*
M02*
