G04 #@! TF.FileFunction,Copper,L1,Top,Signal*
%FSLAX46Y46*%
G04 Gerber Fmt 4.6, Leading zero omitted, Abs format (unit mm)*
G04 Created by KiCad (PCBNEW 4.0.5+dfsg1-4) date Sat Aug 11 18:46:33 2018*
%MOMM*%
%LPD*%
G01*
G04 APERTURE LIST*
%ADD10C,0.100000*%
%ADD11C,3.500000*%
%ADD12C,1.200000*%
%ADD13C,2.800000*%
%ADD14C,1.850000*%
%ADD15R,3.000000X1.524000*%
%ADD16R,3.000000X1.200000*%
%ADD17C,0.250000*%
G04 APERTURE END LIST*
D10*
D11*
X124700000Y-85100000D03*
X124700000Y-108100000D03*
X182700000Y-108100000D03*
X182700000Y-85100000D03*
D12*
X177800000Y-99949000D03*
X177800000Y-97536000D03*
X177800000Y-95504000D03*
X177800000Y-93091000D03*
D13*
X180340000Y-89789000D03*
X180340000Y-103251000D03*
D12*
X129540000Y-93091000D03*
X129540000Y-95504000D03*
X129540000Y-97536000D03*
X129540000Y-99949000D03*
D13*
X127000000Y-103251000D03*
X127000000Y-89789000D03*
D14*
X175260000Y-107950000D03*
X174942500Y-105346500D03*
X163131500Y-109791500D03*
X161099500Y-109791500D03*
D15*
X160782000Y-102489000D03*
X160782000Y-99949000D03*
X160782000Y-97409000D03*
X160782000Y-94869000D03*
D16*
X138938000Y-85471000D03*
X138938000Y-87503000D03*
X138938000Y-89535000D03*
X138938000Y-91567000D03*
X138938000Y-99187000D03*
X138938000Y-101219000D03*
X138938000Y-103251000D03*
X138938000Y-105283000D03*
D17*
X175260000Y-107950000D02*
X175895000Y-107950000D01*
X175895000Y-107950000D02*
X177165000Y-106680000D01*
X177165000Y-106680000D02*
X177165000Y-104775000D01*
X177165000Y-104775000D02*
X167259000Y-94869000D01*
X167259000Y-94869000D02*
X160782000Y-94869000D01*
X174942500Y-105346500D02*
X163639500Y-105346500D01*
X163639500Y-105346500D02*
X160782000Y-102489000D01*
X163131500Y-109791500D02*
X163131500Y-109918500D01*
X163131500Y-109918500D02*
X161925000Y-111125000D01*
X161925000Y-111125000D02*
X159385000Y-111125000D01*
X159385000Y-111125000D02*
X156210000Y-107950000D01*
X156210000Y-107950000D02*
X156210000Y-99695000D01*
X156210000Y-99695000D02*
X158496000Y-97409000D01*
X158496000Y-97409000D02*
X160782000Y-97409000D01*
X161099500Y-109791500D02*
X161099500Y-107124500D01*
X159131000Y-99949000D02*
X160782000Y-99949000D01*
X157480000Y-101600000D02*
X159131000Y-99949000D01*
X157480000Y-103505000D02*
X157480000Y-101600000D01*
X161099500Y-107124500D02*
X157480000Y-103505000D01*
X177800000Y-99949000D02*
X176784000Y-99949000D01*
X141478000Y-99187000D02*
X138938000Y-99187000D01*
X150495000Y-90170000D02*
X141478000Y-99187000D01*
X167005000Y-90170000D02*
X150495000Y-90170000D01*
X176784000Y-99949000D02*
X167005000Y-90170000D01*
X138938000Y-101219000D02*
X134874000Y-101219000D01*
X174625000Y-94361000D02*
X177800000Y-97536000D01*
X174625000Y-93345000D02*
X174625000Y-94361000D01*
X167640000Y-86360000D02*
X174625000Y-93345000D01*
X151130000Y-86360000D02*
X167640000Y-86360000D01*
X142875000Y-94615000D02*
X151130000Y-86360000D01*
X139065000Y-94615000D02*
X142875000Y-94615000D01*
X133985000Y-99695000D02*
X139065000Y-94615000D01*
X133985000Y-100330000D02*
X133985000Y-99695000D01*
X134874000Y-101219000D02*
X133985000Y-100330000D01*
X138938000Y-103251000D02*
X134366000Y-103251000D01*
X175895000Y-93599000D02*
X177800000Y-95504000D01*
X175895000Y-90170000D02*
X175895000Y-93599000D01*
X170815000Y-85090000D02*
X175895000Y-90170000D01*
X150495000Y-85090000D02*
X170815000Y-85090000D01*
X141605000Y-93980000D02*
X150495000Y-85090000D01*
X138430000Y-93980000D02*
X141605000Y-93980000D01*
X132715000Y-99695000D02*
X138430000Y-93980000D01*
X132715000Y-101600000D02*
X132715000Y-99695000D01*
X134366000Y-103251000D02*
X132715000Y-101600000D01*
X139192000Y-103505000D02*
X138938000Y-103251000D01*
X138938000Y-105283000D02*
X135128000Y-105283000D01*
X181864000Y-93091000D02*
X177800000Y-93091000D01*
X182880000Y-92075000D02*
X181864000Y-93091000D01*
X182880000Y-88900000D02*
X182880000Y-92075000D01*
X181610000Y-87630000D02*
X182880000Y-88900000D01*
X179705000Y-87630000D02*
X181610000Y-87630000D01*
X175895000Y-83820000D02*
X179705000Y-87630000D01*
X142875000Y-83820000D02*
X175895000Y-83820000D01*
X141605000Y-85090000D02*
X142875000Y-83820000D01*
X141605000Y-92710000D02*
X141605000Y-85090000D01*
X140970000Y-93345000D02*
X141605000Y-92710000D01*
X137795000Y-93345000D02*
X140970000Y-93345000D01*
X131445000Y-99695000D02*
X137795000Y-93345000D01*
X131445000Y-101600000D02*
X131445000Y-99695000D01*
X135128000Y-105283000D02*
X131445000Y-101600000D01*
X180340000Y-103251000D02*
X180340000Y-95631000D01*
X180340000Y-95631000D02*
X177800000Y-93091000D01*
X177800000Y-93091000D02*
X177800000Y-92329000D01*
X177800000Y-92329000D02*
X180340000Y-89789000D01*
X138938000Y-85471000D02*
X137160000Y-85471000D01*
X137160000Y-85471000D02*
X129540000Y-93091000D01*
X138938000Y-87503000D02*
X137541000Y-87503000D01*
X137541000Y-87503000D02*
X129540000Y-95504000D01*
X138938000Y-89535000D02*
X137541000Y-89535000D01*
X137541000Y-89535000D02*
X129540000Y-97536000D01*
X127000000Y-89789000D02*
X127000000Y-97409000D01*
X127000000Y-97409000D02*
X129540000Y-99949000D01*
X129540000Y-99949000D02*
X129540000Y-100711000D01*
X129540000Y-100711000D02*
X127000000Y-103251000D01*
X138938000Y-91567000D02*
X137922000Y-91567000D01*
X137922000Y-91567000D02*
X129540000Y-99949000D01*
M02*
