M48
METRIC,TZ
T1C1.000
T2C3.000
%
G90
G05
T1
X119126Y-97536
X119126Y-100076
X124460Y-103632
X124460Y-106172
X125222Y-110236
X127000Y-103632
X127000Y-106172
X127762Y-110236
X129540Y-103632
X129540Y-106172
X130302Y-110236
X132080Y-103632
X132080Y-106172
X134620Y-103632
X134620Y-106172
X137160Y-103632
X137160Y-106172
X139700Y-103632
X139700Y-106172
X142240Y-103632
X142240Y-106172
X144780Y-103632
X144780Y-106172
X147320Y-97536
X147320Y-100076
X147320Y-103632
X147320Y-106172
X149860Y-97536
X149860Y-100076
X149860Y-103632
X149860Y-106172
X152400Y-97536
X152400Y-100076
X152400Y-103632
X152400Y-106172
X154940Y-97536
X154940Y-100076
X154940Y-103632
X154940Y-106172
X157480Y-97536
X157480Y-100076
X157480Y-103632
X157480Y-106172
X160020Y-97536
X160020Y-100076
X160020Y-103632
X160020Y-106172
X162560Y-97536
X162560Y-100076
X162560Y-103632
X162560Y-106172
X165100Y-97536
X165100Y-100076
X165100Y-103632
X165100Y-106172
X167640Y-97536
X167640Y-100076
X167640Y-103632
X167640Y-106172
X170180Y-97536
X170180Y-100076
X170180Y-103632
X170180Y-106172
X172720Y-97536
X172720Y-100076
X172720Y-103632
X172720Y-106172
X175260Y-97536
X175260Y-100076
X177800Y-97536
X177800Y-100076
T2
X119634Y-104902
X177546Y-104902
T0
M30
