G04 #@! TF.FileFunction,Copper,L1,Top,Signal*
%FSLAX46Y46*%
G04 Gerber Fmt 4.6, Leading zero omitted, Abs format (unit mm)*
G04 Created by KiCad (PCBNEW 4.0.5+dfsg1-4) date Wed Jul 11 10:22:54 2018*
%MOMM*%
%LPD*%
G01*
G04 APERTURE LIST*
%ADD10C,0.100000*%
%ADD11C,1.600000*%
%ADD12C,3.500000*%
%ADD13C,0.250000*%
%ADD14C,0.580000*%
G04 APERTURE END LIST*
D10*
D11*
X149860000Y-103632000D03*
X149860000Y-106172000D03*
X152400000Y-103632000D03*
X154940000Y-103632000D03*
X157480000Y-103632000D03*
X160020000Y-103632000D03*
X162560000Y-103632000D03*
X165100000Y-103632000D03*
X167640000Y-103632000D03*
X170180000Y-103632000D03*
X172720000Y-103632000D03*
X152400000Y-106172000D03*
X154940000Y-106172000D03*
X157480000Y-106172000D03*
X160020000Y-106172000D03*
X162560000Y-106172000D03*
X165100000Y-106172000D03*
X167640000Y-106172000D03*
X170180000Y-106172000D03*
X172720000Y-106172000D03*
X147320000Y-103632000D03*
X147320000Y-106172000D03*
X144780000Y-103632000D03*
X144780000Y-106172000D03*
X142240000Y-103632000D03*
X142240000Y-106172000D03*
X139700000Y-103632000D03*
X139700000Y-106172000D03*
X137160000Y-103632000D03*
X137160000Y-106172000D03*
X134620000Y-103632000D03*
X134620000Y-106172000D03*
X132080000Y-103632000D03*
X132080000Y-106172000D03*
X129540000Y-103632000D03*
X129540000Y-106172000D03*
X127000000Y-103632000D03*
X127000000Y-106172000D03*
X124460000Y-103632000D03*
X124460000Y-106172000D03*
X154940000Y-97536000D03*
X154940000Y-100076000D03*
X157480000Y-97536000D03*
X160020000Y-97536000D03*
X162560000Y-97536000D03*
X165100000Y-97536000D03*
X167640000Y-97536000D03*
X170180000Y-97536000D03*
X172720000Y-97536000D03*
X175260000Y-97536000D03*
X177800000Y-97536000D03*
X157480000Y-100076000D03*
X160020000Y-100076000D03*
X162560000Y-100076000D03*
X165100000Y-100076000D03*
X167640000Y-100076000D03*
X170180000Y-100076000D03*
X172720000Y-100076000D03*
X175260000Y-100076000D03*
X177800000Y-100076000D03*
X152400000Y-97536000D03*
X152400000Y-100076000D03*
X149860000Y-97536000D03*
X149860000Y-100076000D03*
X147320000Y-97536000D03*
X147320000Y-100076000D03*
D12*
X177546000Y-104902000D03*
X119634000Y-104902000D03*
D11*
X119126000Y-97536000D03*
X119126000Y-100076000D03*
X130302000Y-110236000D03*
X127762000Y-110236000D03*
X125222000Y-110236000D03*
D13*
X149860000Y-103632000D02*
X151130000Y-104902000D01*
X153670000Y-98806000D02*
X154940000Y-97536000D01*
X153670000Y-104394000D02*
X153670000Y-98806000D01*
X153162000Y-104902000D02*
X153670000Y-104394000D01*
X152654000Y-104902000D02*
X153162000Y-104902000D01*
X151130000Y-104902000D02*
X152654000Y-104902000D01*
X160020000Y-103632000D02*
X160020000Y-103124000D01*
X160020000Y-103124000D02*
X161290000Y-101854000D01*
X161290000Y-101854000D02*
X162814000Y-101854000D01*
X162814000Y-101854000D02*
X163830000Y-100838000D01*
X163830000Y-100838000D02*
X163830000Y-98806000D01*
X163830000Y-98806000D02*
X165100000Y-97536000D01*
X152400000Y-106172000D02*
X153162000Y-106172000D01*
X153162000Y-106172000D02*
X154432000Y-104902000D01*
X154432000Y-104902000D02*
X155702000Y-104902000D01*
X155702000Y-104902000D02*
X156210000Y-104394000D01*
X156210000Y-104394000D02*
X156210000Y-101346000D01*
X156210000Y-101346000D02*
X157480000Y-100076000D01*
X147320000Y-103632000D02*
X147320000Y-103124000D01*
X147320000Y-103124000D02*
X149098000Y-101346000D01*
X149098000Y-101346000D02*
X150368000Y-101346000D01*
X150368000Y-101346000D02*
X151130000Y-100584000D01*
X151130000Y-100584000D02*
X151130000Y-98806000D01*
X151130000Y-98806000D02*
X152400000Y-97536000D01*
X147320000Y-106172000D02*
X147320000Y-105918000D01*
X147320000Y-105918000D02*
X148590000Y-104648000D01*
X150368000Y-102108000D02*
X152400000Y-100076000D01*
X149352000Y-102108000D02*
X150368000Y-102108000D01*
X148590000Y-102870000D02*
X149352000Y-102108000D01*
X148590000Y-104648000D02*
X148590000Y-102870000D01*
X149860000Y-97536000D02*
X149352000Y-97536000D01*
X149352000Y-97536000D02*
X148082000Y-98806000D01*
X148082000Y-98806000D02*
X146812000Y-98806000D01*
X146812000Y-98806000D02*
X144780000Y-100838000D01*
X144780000Y-100838000D02*
X144780000Y-103632000D01*
X144780000Y-106172000D02*
X144780000Y-105918000D01*
X144780000Y-105918000D02*
X146050000Y-104648000D01*
X146050000Y-104648000D02*
X146050000Y-102870000D01*
X146050000Y-102870000D02*
X147066000Y-101854000D01*
X147066000Y-101854000D02*
X147574000Y-101854000D01*
X147574000Y-101854000D02*
X149352000Y-100076000D01*
X149352000Y-100076000D02*
X149860000Y-100076000D01*
D14*
X119126000Y-100076000D02*
X122682000Y-103632000D01*
X125984000Y-112014000D02*
X127762000Y-110236000D01*
X123952000Y-112014000D02*
X125984000Y-112014000D01*
X122682000Y-110744000D02*
X123952000Y-112014000D01*
X122682000Y-103632000D02*
X122682000Y-110744000D01*
X130302000Y-110236000D02*
X168910000Y-110236000D01*
X168910000Y-110236000D02*
X171450000Y-107696000D01*
X175260000Y-100076000D02*
X175260000Y-102362000D01*
X175260000Y-102362000D02*
X175006000Y-102616000D01*
X170180000Y-106172000D02*
X170180000Y-106426000D01*
X170180000Y-106426000D02*
X171450000Y-107696000D01*
X171450000Y-107696000D02*
X173482000Y-107696000D01*
X173482000Y-107696000D02*
X175006000Y-106172000D01*
X175006000Y-106172000D02*
X175006000Y-103886000D01*
X172720000Y-106172000D02*
X175006000Y-103886000D01*
X175006000Y-102616000D02*
X177546000Y-100076000D01*
X175006000Y-103886000D02*
X175006000Y-102616000D01*
X177546000Y-100076000D02*
X177800000Y-100076000D01*
M02*
